<?xml version="1.0" encoding="UTF-8"?>
<svg width="638px" height="166px" viewBox="0 0 638 166" version="1.1" xmlns="http://www.w3.org/2000/svg" xmlns:xlink="http://www.w3.org/1999/xlink">
    <!-- Generator: Sketch 59.1 (86144) - https://sketch.com -->
    <title>Group</title>
    <desc>Created with Sketch.</desc>
    <g id="Page-1" stroke="none" stroke-width="1" fill="none" fill-rule="evenodd">
        <g id="Group" transform="translate(0.464600, 0.641400)" fill="#FFFFFF">
            <path d="M82.345,164.717 C36.861,164.717 1.42108547e-14,127.843 1.42108547e-14,82.359 C1.42108547e-14,36.873 36.861,0 82.345,0 L82.345,164.717 Z" id="Fill-16"></path>
            <path d="M450.8079,164.715 C405.3249,164.715 368.4629,127.841 368.4629,82.362 C368.4629,36.878 405.3249,0.003 450.8079,0.003 L450.8079,164.715 Z" id="Fill-18"></path>
            <path d="M287.6291,0.0002 C333.1141,0.0002 370.0011,36.8732 370.0011,82.3582 C370.0011,127.8432 333.1141,164.7172 287.6291,164.7172 L287.6291,0.0002 Z" id="Fill-20"></path>
            <path d="M186.175,0.0002 C140.692,0.0002 103.829,36.8732 103.829,82.3582 C103.829,127.8432 140.692,164.7172 186.175,164.7172 C231.659,164.7172 268.547,127.8432 268.547,82.3582 C268.547,36.8732 231.659,0.0002 186.175,0.0002" id="Fill-22"></path>
            <path d="M554.7122,0.0026 C509.2272,0.0026 472.3542,36.8776 472.3542,82.3626 C472.3542,127.8406 509.2272,164.7146 554.7122,164.7146 C600.1962,164.7146 637.0702,127.8406 637.0702,82.3626 C637.0702,36.8776 600.1962,0.0026 554.7122,0.0026" id="Fill-24"></path>
        </g>
    </g>
</svg>