<?xml version="1.0" encoding="UTF-8"?>
<svg width="504px" height="246px" viewBox="0 0 504 246" version="1.1" xmlns="http://www.w3.org/2000/svg" xmlns:xlink="http://www.w3.org/1999/xlink">
    <!-- Generator: Sketch 59.1 (86144) - https://sketch.com -->
    <title>cono-tagline</title>
    <desc>Created with Sketch.</desc>
    <g id="Page-1" stroke="none" stroke-width="1" fill="none" fill-rule="evenodd">
        <g id="cono-tagline" fill="#FFFFFF" fill-rule="nonzero">
            <path d="M41.93,84.16 L41.93,0.66 C18.8721117,0.66 0.18,19.3521117 0.18,42.41 C0.18,65.4678883 18.8721117,84.16 41.93,84.16 Z" id="Path"></path>
            <path d="M188.45,48.05 C191.2,68.44 208.93,84.16 228.93,84.16 L228.93,0.66 C208.93,0.66 191.2,16.37 188.45,36.76 C185.68,16.37 162.93,0.66 147.93,0.66 L147.93,84.16 C162.93,84.16 185.68,68.44 188.45,48.05 Z" id="Path"></path>
            <path d="M94.25,84.1600012 C117.307887,84.1655222 136.004475,65.4778881 136.01,42.4200008 C136.01552,19.3621135 117.327887,0.665525463 94.2699992,0.660001171 C71.2121119,0.654479327 52.5155235,19.3421127 52.51,42.4 C52.51,65.4556029 71.1943997,84.148958 94.25,84.1600012 Z" id="Path"></path>
            <path d="M281.09,84.16 C304.147888,84.16 322.84,65.4678883 322.84,42.41 C322.84,19.3521117 304.147888,0.66 281.09,0.66 C258.032112,0.66 239.34,19.3521117 239.34,42.41 C239.34552,65.4656013 258.034399,84.1544797 281.09,84.16 Z" id="Path"></path>
            <path d="M35.77,173 C30.55,174.92 27.14,175.61 22.77,175.61 C9.98,175.61 0.6,166.67 0.6,154.44 C0.534254273,148.732427 2.78152204,143.241268 6.82987989,139.2174 C10.8782377,135.193532 16.3829307,132.979624 22.09,133.08 C25.7984906,133.007022 29.4738149,133.79068 32.83,135.37 L32.83,132.58 L35.75,132.58 L35.75,143.14 L32.83,143.14 L32.83,140.09 C29.04,137.3 26.25,136.24 22.27,136.24 C13.08,136.24 6.75,143.57 6.75,154.06 C6.75,164.37 13.95,172.38 23.2,172.38 C26.31,172.38 28.85,171.57 32.83,169.27 L32.83,164.74 L35.83,164.74 L35.77,173 Z" id="Path"></path>
            <path d="M40.93,160.8 C40.93,152.6 47.01,145.96 54.52,145.96 C62.03,145.96 68.12,152.6 68.12,160.8 C68.12,169 62.04,175.64 54.52,175.64 C47,175.64 40.93,169 40.93,160.8 Z M46.27,160.8 C46.27,167.63 49.87,173.03 54.52,173.03 C59.17,173.03 62.84,167.69 62.84,160.8 C62.84,153.91 59.18,148.57 54.52,148.57 C49.86,148.57 46.27,153.91 46.27,160.8 Z" id="Shape"></path>
            <path d="M123.76,174.83 L109.76,174.83 L109.76,172.53 L114.48,172.53 L114.48,154.34 C114.48,150.99 112.81,149.06 110.07,149.06 C108.07,149.06 106.41,150 103.74,152.85 L100.45,156.39 L100.45,172.53 L105.11,172.53 L105.11,174.83 L91,174.83 L91,172.53 L95.66,172.53 L95.66,154.34 C95.66,151.05 93.98,149 91.25,149 C88.52,149 87.03,150.18 81.63,156.39 L81.63,172.53 L86.35,172.53 L86.35,174.83 L72.25,174.83 L72.25,172.53 L77,172.53 L77,150.18 L71.6,150.18 L71.6,148.51 L80.54,146.08 L81.66,146.08 L81.66,153.08 C86.32,147.68 88.99,146 92.96,146 C97.37,146 99.79,148.3 100.41,153.08 C105.07,147.68 107.74,146 111.65,146 C116.24,146 119.1,149 119.1,153.7 L119.1,172.57 L123.76,172.57 L123.76,174.83 Z" id="Path"></path>
            <path d="M141.21,174.83 L127.11,174.83 L127.11,172.53 L131.83,172.53 L131.83,150.18 L126.43,150.18 L126.43,148.51 L135.37,146.08 L136.49,146.08 L136.49,172.53 L141.21,172.53 L141.21,174.83 Z M133.88,132.18 C135.20483,132.167907 136.40521,132.95881 136.916855,134.180914 C137.428501,135.403019 137.149634,136.813222 136.211348,137.748603 C135.273061,138.683985 133.862,138.958478 132.641488,138.443045 C131.420976,137.927613 130.633799,136.724786 130.65,135.4 C130.649996,134.544267 130.990617,133.723729 131.596649,133.119573 C132.202681,132.515418 133.024272,132.177342 133.88,132.18 Z" id="Shape"></path>
            <path d="M148.35,175.39 L145.87,175.39 L145.87,166.57 L148.72,166.57 L148.72,168.25 C148.72,170.92 152.2,173.25 156.05,173.25 C159.46,173.25 162.05,171.45 162.05,168.96 C162.05,166.47 160.31,165.11 153.79,162.57 C147.79,160.27 145.72,157.97 145.72,154.06 C145.72,149.22 149.63,145.93 155.34,145.93 C157.719434,145.814141 160.060358,146.563663 161.93,148.04 L162.3,145.81 L164.97,145.81 L163.48,154.75 L160.81,154.75 C161.037359,154.106837 161.162216,153.431935 161.18,152.75 C161.18,150.33 158.39,148.34 155.03,148.34 C151.67,148.34 149.69,150.08 149.69,152.75 C149.69,155.42 150.13,155.75 157.69,158.75 C163.78,161.17 165.69,163.22 165.69,167.19 C165.69,172.19 161.84,175.64 156.31,175.64 C152.84,175.64 150.23,174.83 148.43,173.15 L148.35,175.39 Z" id="Path"></path>
            <path d="M174.49,175.39 L172,175.39 L172,166.57 L174.85,166.57 L174.85,168.25 C174.85,170.92 178.33,173.25 182.18,173.25 C185.59,173.25 188.18,171.45 188.18,168.96 C188.18,166.47 186.44,165.11 179.92,162.57 C173.92,160.27 171.85,157.97 171.85,154.06 C171.85,149.22 175.76,145.93 181.48,145.93 C183.856167,145.815675 186.193428,146.565161 188.06,148.04 L188.43,145.81 L191.1,145.81 L189.61,154.75 L186.94,154.75 C187.167359,154.106837 187.292216,153.431935 187.31,152.75 C187.31,150.33 184.52,148.34 181.16,148.34 C177.8,148.34 175.83,150.08 175.83,152.75 C175.83,155.42 176.26,155.75 183.77,158.75 C189.86,161.17 191.77,163.22 191.77,167.19 C191.77,172.19 187.92,175.64 182.4,175.64 C178.92,175.64 176.31,174.83 174.51,173.15 L174.49,175.39 Z" id="Path"></path>
            <path d="M211,174.83 L196.91,174.83 L196.91,172.53 L201.63,172.53 L201.63,150.18 L196.22,150.18 L196.22,148.51 L205.17,146.08 L206.28,146.08 L206.28,172.53 L211,172.53 L211,174.83 Z M203.68,132.18 C205.00483,132.167907 206.20521,132.95881 206.716855,134.180914 C207.228501,135.403019 206.949634,136.813222 206.011348,137.748603 C205.073061,138.683985 203.662,138.958478 202.441488,138.443045 C201.220976,137.927613 200.433799,136.724786 200.45,135.4 C200.449996,134.544267 200.790617,133.723729 201.396649,133.119573 C202.002681,132.515418 202.824272,132.177342 203.68,132.18 Z" id="Shape"></path>
            <path d="M214.42,160.8 C214.42,152.6 220.5,145.96 228.02,145.96 C235.54,145.96 241.61,152.6 241.61,160.8 C241.61,169 235.53,175.64 228.02,175.64 C220.51,175.64 214.42,169 214.42,160.8 Z M219.76,160.8 C219.76,167.63 223.36,173.03 228.02,173.03 C232.68,173.03 236.34,167.69 236.34,160.8 C236.34,153.91 232.67,148.57 228.02,148.57 C223.37,148.57 219.76,153.91 219.76,160.8 Z M225.76,141.99 L222.47,141.99 L229.86,131.99 L235.57,131.99 L225.76,141.99 Z" id="Shape"></path>
            <polygon id="Path" points="297.19 175.51 295.26 175.51 271.42 142.73 271.42 172.53 276.14 172.53 276.14 174.83 263.6 174.83 263.6 172.53 268.32 172.53 268.32 138.53 266.64 136.17 262.36 136.17 262.36 133.87 271.36 133.87 294.08 165 294.08 136.15 289.36 136.15 289.36 133.85 301.84 133.85 301.84 136.15 297.19 136.15"></polygon>
            <path d="M307.06,160.8 C307.06,152.6 313.15,145.96 320.66,145.96 C328.17,145.96 334.26,152.6 334.26,160.8 C334.26,169 328.17,175.64 320.66,175.64 C313.15,175.64 307.06,169 307.06,160.8 Z M312.4,160.8 C312.4,167.63 316,173.03 320.66,173.03 C325.32,173.03 329,167.69 329,160.8 C329,153.91 325.34,148.57 320.68,148.57 C316.02,148.57 312.4,153.91 312.4,160.8 Z" id="Shape"></path>
            <path d="M362.26,172.66 C358.17,175.08 356.49,175.66 352.58,175.66 C343.89,175.66 338.36,170.07 338.36,161.32 C338.36,152.32 344.63,145.98 353.51,145.98 C356.74,145.98 358.51,146.6 361.77,148.84 L358.41,152.56 C356.891225,150.879588 355.111785,149.454685 353.14,148.34 C349.72,148.59 348.42,149.21 346.37,151.69 C344.481945,154.001907 343.469274,156.905372 343.51,159.89 C343.51,166.84 348.29,172.55 354.07,172.55 C356.07,172.55 357.61,172.06 361.02,170.32 L362.26,172.66 Z" id="Path"></path>
            <path d="M381.64,172.22 C378.35,174.83 377.1,175.39 374.81,175.39 C371.21,175.39 369.03,173.15 369.03,169.39 L369.03,150.18 L363.63,150.18 L363.63,148.51 L369.03,147.14 L369.03,138.57 L373.5,138.57 L373.5,147.33 L381.2,147.33 L381.2,150.18 L373.5,150.18 L373.5,168.81 C373.5,171.17 374.31,172.04 376.36,172.04 C377.66,172.04 378.47,171.79 380.58,170.55 L381.64,172.22 Z" id="Path"></path>
            <path d="M416.41,173.09 L407.47,175.33 L406.35,175.33 L406.35,168.33 C401.88,173.73 398.96,175.66 395.11,175.66 C390.46,175.66 387.6,172.66 387.6,167.66 L387.6,150.18 L382.2,150.18 L382.2,148.51 L391.14,146.08 L392.32,146.08 L392.32,166.88 C392.32,170.67 393.81,172.53 396.85,172.53 C399.15,172.53 400.7,171.53 403.49,168.25 C404.12,167.57 405.05,166.51 406.35,165.08 L406.35,150.18 L401.63,150.18 L401.63,148.26 L409.83,146.08 L411,146.08 L411,171.35 L416.4,171.35 L416.41,173.09 Z" id="Path"></path>
            <path d="M434.42,174.83 L419.08,174.83 L419.08,172.53 L423.8,172.53 L423.8,150.18 L418.4,150.18 L418.4,148.51 L427.34,146.08 L428.46,146.08 L428.46,153.08 C432.93,147.37 434.54,146 436.78,146 C437.410271,145.957291 438.032952,146.157694 438.52,146.56 L440.44,148.23 L436.84,152.58 C435.6,151.4 434.73,150.84 434.11,150.84 C432.99,150.84 431.87,151.9 428.46,156.06 L428.46,172.57 L434.46,172.57 L434.42,174.83 Z" id="Path"></path>
            <path d="M475.27,174.83 L461.27,174.83 L461.27,172.53 L465.93,172.53 L465.93,154.34 C465.93,151.05 464.25,149 461.52,149 C458.79,149 457.3,150.18 451.9,156.39 L451.9,172.53 L456.62,172.53 L456.62,174.83 L442.52,174.83 L442.52,172.53 L447.24,172.53 L447.24,150.18 L441.84,150.18 L441.84,148.51 L450.78,146.08 L451.9,146.08 L451.9,153.08 C456.55,147.68 459.22,146 463.2,146 C467.79,146 470.65,149 470.65,153.76 L470.65,172.57 L475.3,172.57 L475.27,174.83 Z" id="Path"></path>
            <path d="M503.65,173.65 L499.49,174.95 C498.788273,175.188172 498.059076,175.336028 497.32,175.39 C495.39,175.39 494.32,174.02 494.32,171.73 L494.32,171.11 C491.71,174.33 489.32,175.64 486.06,175.64 C481.78,175.64 478.61,172.64 478.61,168.5 C478.538623,165.434991 480.625,162.739392 483.61,162.04 L494.23,159.62 L494.23,152.62 C494.252734,151.465791 493.799378,150.353112 492.976477,149.543452 C492.153575,148.733793 491.033688,148.298546 489.88,148.34 C488.527013,148.347929 487.199676,148.70993 486.03,149.39 L486.03,152.39 L480.49,154 C480.140159,153.489482 479.967976,152.878055 480,152.26 C480,148.66 484.16,145.99 489.81,145.99 C495.27,145.99 498.87,148.72 498.87,152.82 L498.87,171.94 L503.65,171.94 L503.65,173.65 Z M494.22,162.1 L483.6,164.59 L483.6,167.69 C483.515589,168.84895 483.939333,169.987323 484.761005,170.808995 C485.582677,171.630667 486.72105,172.054411 487.88,171.97 C489.88,171.97 491.48,171.11 494.22,168.68 L494.22,162.1 Z" id="Shape"></path>
            <path d="M31,243.09 L22.06,245.45 L20.88,245.45 L20.88,241.11 C17.46,244.52 15.29,245.64 12.12,245.64 C5.67,245.64 0.57,239.37 0.57,231.42 C0.57,222.85 7.16,215.96 15.29,215.96 C17.2648111,215.918938 19.2083195,216.457836 20.88,217.51 L20.88,203.17 L15.48,203.17 L15.48,201.49 L24.42,199.07 L25.6,199.07 L25.6,241.35 L31,241.35 L31,243.09 Z M20.88,238.09 L20.88,223.69 C20.88,219.84 19.64,218.54 15.97,218.54 C9.97,218.54 5.91,223.32 5.91,230.46 C5.91,237.41 8.91,241.57 14.05,241.57 C15.97,241.57 16.9,241.2 19.05,239.52 C19.44,239.24 20.06,238.75 20.87,238.12 L20.88,238.09 Z" id="Shape"></path>
            <path d="M57.5,242.22 C52.85,244.89 50.67,245.64 47.07,245.64 C39.19,245.64 33.6,239.55 33.6,230.98 C33.6,222.41 39.25,215.98 46.95,215.98 C53.65,215.98 58.25,220.57 58.25,227.28 L58.25,228.96 L38.69,228.96 L38.69,229.64 C38.69,237.4 42.79,242.8 48.69,242.8 C51.17,242.8 52.85,242.18 56.32,239.95 L57.5,242.22 Z M53.16,226.45 L53.16,225 C53.270325,223.315865 52.6662414,221.663143 51.4958807,220.44711 C50.3255199,219.231077 48.6971228,218.564197 47.01,218.61 C42.48,218.61 39.31,221.61 38.75,226.49 L53.16,226.45 Z" id="Shape"></path>
            <path d="M79.86,244.83 L79.86,242.53 L84.52,242.53 L84.52,206.15 L79.86,206.15 L79.86,203.849823 L98.74,203.849823 C101.446946,203.834044 104.049214,204.894778 105.973635,206.798567 C107.898056,208.702356 108.986777,211.29304 109,214 C109,218.66 104.9,222.76 99.87,223.19 C101.606668,223.293162 103.305856,223.738349 104.87,224.5 C108.639847,226.20174 111.034566,229.984531 110.96,234.12 C110.96,240.21 106.24,244.8 99.9,244.8 L79.86,244.83 Z M90,222.17 L96.33,222.17 C100.33,222.17 103.23,218.88 103.23,214.28 C103.23,209.94 100.56,206.71 96.89,206.71 L90,206.71 L90,222.17 Z M90,242 L96.95,242 C102.17,242 105.34,238.89 105.34,233.8 C105.34,228.71 101.8,224.92 96.95,224.92 L90,224.92 L90,242 Z" id="Shape"></path>
            <path d="M142.26,243.65 L138.1,245 C137.398273,245.238172 136.669076,245.386028 135.93,245.44 C134.01,245.44 132.93,244.07 132.93,241.78 L132.93,241.16 C130.32,244.38 127.93,245.69 124.67,245.69 C120.39,245.69 117.22,242.69 117.22,238.55 C117.148623,235.484991 119.235,232.789392 122.22,232.09 L132.84,229.67 L132.84,222.67 C132.862734,221.515791 132.409378,220.403112 131.586477,219.593452 C130.763575,218.783793 129.643688,218.348546 128.49,218.39 C127.137013,218.397929 125.809676,218.75993 124.64,219.44 L124.64,222.44 L119.1,224 C118.750159,223.489482 118.577976,222.878055 118.61,222.26 C118.61,218.66 122.77,215.99 128.42,215.99 C133.88,215.99 137.48,218.72 137.48,222.82 L137.48,241.94 L142.26,241.94 L142.26,243.65 Z M132.83,232.1 L122.21,234.59 L122.21,237.69 C122.125589,238.84895 122.549333,239.987323 123.371005,240.808995 C124.192677,241.630667 125.33105,242.054411 126.49,241.97 C128.49,241.97 130.09,241.11 132.83,238.68 L132.83,232.1 Z" id="Shape"></path>
            <path d="M160.89,244.83 L145.56,244.83 L145.56,242.53 L150.27,242.53 L150.27,220.18 L144.87,220.18 L144.87,218.51 L153.81,216.08 L154.93,216.08 L154.93,223.08 C159.4,217.37 161.02,216 163.25,216 C163.880651,215.954159 164.50447,216.154928 164.99,216.56 L166.91,218.23 L163.31,222.58 C162.07,221.4 161.2,220.84 160.58,220.84 C159.46,220.84 158.35,221.9 154.93,226.06 L154.93,242.57 L160.93,242.57 L160.89,244.83 Z" id="Path"></path>
            <path d="M192.81,242.66 C188.71,245.08 187.03,245.66 183.12,245.66 C174.43,245.66 168.9,240.07 168.9,231.32 C168.9,222.32 175.18,215.98 184.05,215.98 C187.28,215.98 189.05,216.6 192.31,218.84 L189,222.54 C187.477727,220.85925 185.694945,219.434374 183.72,218.32 C180.31,218.57 179,219.19 176.95,221.67 C175.06478,223.982863 174.055598,226.886476 174.1,229.87 C174.1,236.82 178.88,242.53 184.65,242.53 C186.65,242.53 188.19,242.04 191.65,240.3 L192.81,242.66 Z" id="Path"></path>
            <path d="M219.57,242.22 C214.91,244.89 212.74,245.64 209.14,245.64 C201.25,245.64 195.67,239.55 195.67,230.98 C195.67,222.41 201.32,215.98 209.02,215.98 C215.72,215.98 220.32,220.57 220.32,227.28 L220.32,228.96 L200.76,228.96 L200.76,229.64 C200.76,237.4 204.86,242.8 210.76,242.8 C213.25,242.8 214.92,242.18 218.4,239.95 L219.57,242.22 Z M215.22,226.45 L215.22,225 C215.330134,223.317647 214.727376,221.666583 213.559245,220.45089 C212.391114,219.235196 210.765407,218.56706 209.08,218.61 C204.55,218.61 201.38,221.61 200.82,226.49 L215.22,226.45 Z" id="Shape"></path>
            <polygon id="Path" points="237.52 244.83 223.52 244.83 223.52 242.53 228.23 242.53 228.23 203.17 222.77 203.17 222.77 201.49 231.71 199.07 232.89 199.07 232.89 242.53 237.55 242.53"></polygon>
            <path d="M240.87,230.8 C240.87,222.6 246.96,215.96 254.47,215.96 C261.98,215.96 268.07,222.6 268.07,230.8 C268.07,239 261.98,245.64 254.47,245.64 C246.96,245.64 240.87,239 240.87,230.8 Z M246.21,230.8 C246.21,237.63 249.81,243.03 254.47,243.03 C259.13,243.03 262.79,237.69 262.79,230.8 C262.79,223.91 259.13,218.57 254.47,218.57 C249.81,218.57 246.21,223.91 246.21,230.8 Z" id="Shape"></path>
            <path d="M305,244.83 L291,244.83 L291,242.53 L295.66,242.53 L295.66,224.34 C295.66,221.05 293.98,219 291.25,219 C288.52,219 287.03,220.18 281.62,226.39 L281.62,242.53 L286.34,242.53 L286.34,244.83 L272.23,244.83 L272.23,242.53 L277,242.53 L277,220.18 L271.6,220.18 L271.6,218.51 L280.54,216.08 L281.65,216.08 L281.65,223.08 C286.31,217.68 288.98,216 292.95,216 C297.55,216 300.41,219 300.41,223.76 L300.41,242.57 L305,242.57 L305,244.83 Z" id="Path"></path>
            <path d="M333.39,243.65 L329.23,244.95 C328.527775,245.186321 327.798814,245.334129 327.06,245.39 C325.13,245.39 324.01,244.02 324.01,241.73 L324.01,241.11 C321.41,244.33 319.01,245.64 315.76,245.64 C311.47,245.64 308.31,242.64 308.31,238.5 C308.238623,235.434991 310.325,232.739392 313.31,232.04 L324,229.62 L324,222.62 C324.025528,221.466724 323.574456,220.353941 322.75311,219.54395 C321.931763,218.733958 320.812809,218.298421 319.66,218.34 C318.306886,218.346997 316.979312,218.709062 315.81,219.39 L315.81,222.39 L310.23,224 C309.877305,223.490395 309.701646,222.879102 309.73,222.26 C309.73,218.66 313.89,215.99 319.54,215.99 C325.01,215.99 328.61,218.72 328.61,222.82 L328.61,241.94 L333.39,241.94 L333.39,243.65 Z M324,232.1 L313.39,234.59 L313.39,237.69 C313.305589,238.84895 313.729333,239.987323 314.551005,240.808995 C315.372677,241.630667 316.51105,242.054411 317.67,241.97 C319.67,241.97 321.27,241.11 324,238.68 L324,232.1 Z" id="Shape"></path>
        </g>
    </g>
</svg>